<svg id="Layer_1" enable-background="new 0 0 511.999 511.999" height="512" viewBox="0 0 511.999 511.999" width="512" xmlns="http://www.w3.org/2000/svg"><g><path d="m0 80.792v100.841h58.718v-178.535c-33.851 9.625-58.718 40.799-58.718 77.694z"/><path d="m469.845 80.792c0-36.897-24.869-68.071-58.721-77.695v178.536h58.721z"/><path d="m234.923 64.249c19.938 0 36.16-16.221 36.16-36.16v-28.089h-72.32v28.088c0 19.94 16.221 36.161 36.16 36.161z"/><path d="m88.718 0v467.242h292.406v-116.014h43.54c15.68 0 28.437 12.757 28.437 28.437v14.637h-28.896v117.696h87.794v-117.696h-28.897v-14.637c0-32.222-26.215-58.437-58.437-58.437h-43.54v-321.228h-80.042v28.088c0 36.481-29.679 66.16-66.16 66.16s-66.16-29.679-66.16-66.16v-28.088z"/></g></svg>